<svg xmlns="http://www.w3.org/2000/svg" viewBox="0 0 780 780" fill="currentColor">
<g transform="translate(0.000000,780.000000) scale(0.100000,-0.100000)"
fill="currentColor" stroke="none">
<path d="M3838 7783 c-21 -25 -131 -199 -156 -249 -43 -84 -51 -219 -16 -286
8 -15 49 -71 92 -125 122 -153 112 -128 112 -290 0 -79 -3 -143 -8 -143 -4 0
-40 33 -79 73 -59 60 -71 78 -71 106 -1 60 -61 102 -114 80 -31 -13 -58 -55
-58 -89 0 -34 53 -80 92 -80 30 0 46 -12 125 -92 105 -108 113 -126 113 -271
0 -125 10 -148 117 -255 l82 -84 3 -61 c3 -59 4 -62 31 -65 52 -6 30 -42 -104
-170 -53 -51 -104 -108 -114 -127 -15 -32 -16 -108 -16 -809 l0 -774 -52 -5
c-29 -2 -61 -7 -72 -11 -16 -6 -40 9 -110 70 -50 42 -90 80 -89 85 1 5 2 29 3
54 l1 45 130 0 130 0 0 30 0 30 -130 0 -130 0 0 30 c0 42 -23 94 -51 114 -13
9 -43 16 -66 16 l-43 0 0 600 0 600 33 0 c58 0 62 8 62 130 0 123 -8 140 -67
140 l-28 0 0 529 0 529 32 79 c17 43 33 103 36 133 3 48 0 60 -25 96 -44 65
-194 198 -205 182 -20 -32 -78 -232 -78 -270 0 -55 28 -99 108 -173 l62 -57 0
-426 0 -427 -106 105 c-153 152 -148 143 -155 285 -6 139 -15 162 -95 246
l-53 57 6 145 c6 144 6 146 -21 201 -32 64 -37 69 -221 175 -91 53 -142 77
-146 69 -8 -13 -22 -203 -22 -309 0 -65 5 -84 28 -128 34 -62 78 -93 215 -152
85 -36 109 -51 159 -104 70 -73 81 -104 81 -233 0 -66 5 -102 16 -125 9 -18
76 -93 150 -167 130 -132 164 -180 164 -235 0 -20 -5 -25 -24 -25 -14 0 -36
-4 -50 -10 -26 -9 -26 -10 -26 -123 0 -75 4 -117 12 -125 7 -7 29 -12 50 -12
l38 0 0 -205 c0 -113 -1 -205 -2 -205 -2 0 -49 45 -105 100 -104 101 -133 117
-152 81 -9 -16 9 -37 124 -150 l135 -132 0 -344 0 -345 -27 0 c-48 0 -102 -20
-118 -43 -12 -17 -15 -51 -15 -154 0 -124 1 -134 23 -159 19 -22 34 -28 78
-32 l54 -4 3 -283 3 -282 -51 -5 c-29 -3 -63 -14 -78 -25 -27 -20 -27 -21 -30
-161 -2 -136 -2 -141 22 -169 23 -27 29 -28 119 -31 l95 -4 120 -121 c65 -67
127 -138 138 -157 17 -31 19 -62 22 -258 2 -122 2 -222 0 -222 -2 0 -191 187
-421 416 -252 250 -424 429 -432 449 -12 26 -14 164 -15 736 -1 387 -1 725 -1
752 l1 47 38 0 c63 0 72 18 72 147 0 126 -9 143 -73 143 l-37 0 0 317 0 317
63 -62 63 -62 74 0 c89 0 107 8 91 39 -10 18 -21 21 -70 21 -58 0 -60 1 -119
58 -107 103 -102 83 -102 416 l0 288 25 30 c28 34 32 66 10 107 -16 32 -33 41
-75 41 -42 0 -59 -9 -75 -41 -23 -43 -18 -75 15 -113 l30 -34 -2 -658 -3 -659
-40 -3 c-63 -5 -65 -10 -65 -148 0 -138 3 -144 74 -144 l36 0 0 -242 0 -243
-231 230 c-127 127 -238 246 -248 265 -14 31 -17 120 -23 815 -3 429 -7 791
-9 805 -1 14 2 87 6 162 10 175 1 213 -69 283 -39 39 -88 69 -212 131 l-161
80 -7 -74 c-21 -251 8 -393 94 -465 17 -15 84 -52 150 -83 91 -44 121 -63 130
-83 7 -17 9 -106 8 -248 l-3 -221 -72 67 c-78 73 -96 110 -69 140 52 57 12
151 -64 151 -31 0 -44 -6 -65 -32 -35 -41 -29 -91 14 -128 16 -14 34 -41 40
-60 7 -23 46 -71 116 -140 l105 -105 0 -225 0 -225 -89 89 c-80 79 -91 87
-110 77 -11 -7 -21 -19 -21 -29 0 -10 50 -67 110 -127 l110 -110 0 -196 c0
-291 -19 -252 281 -554 162 -163 254 -264 266 -290 16 -36 18 -85 23 -495 5
-419 6 -458 24 -490 10 -19 208 -226 441 -460 233 -234 430 -440 439 -458 33
-64 37 -186 34 -1007 l-3 -810 -25 -52 c-16 -34 -66 -94 -143 -173 -89 -91
-117 -127 -115 -143 2 -13 11 -23 24 -25 31 -4 252 226 290 304 l29 59 3 1198
c2 1162 2 1199 -17 1240 -10 23 -66 92 -124 153 l-105 110 24 23 c17 16 24 35
26 74 l3 52 360 0 360 0 3 -52 c2 -39 9 -58 26 -74 l24 -23 -192 -198 c-118
-121 -204 -218 -222 -250 l-29 -53 -3 -757 c-1 -417 0 -758 3 -758 4 0 16 5
27 11 15 8 19 8 14 0 -4 -6 -3 -11 3 -11 7 0 11 244 13 738 3 731 3 737 25
784 14 32 84 111 224 255 111 114 210 213 218 219 9 7 58 13 110 15 87 4 94 6
117 32 23 27 24 35 24 158 0 72 -5 139 -10 150 -15 27 -63 49 -110 49 l-40 0
0 285 0 285 40 0 c48 0 95 22 111 52 7 13 11 73 11 152 l0 131 40 45 c62 70
71 94 76 203 l4 97 42 0 c23 0 47 5 54 12 17 17 17 249 0 266 -7 7 -29 12 -50
12 l-38 0 0 118 c0 155 1 157 117 166 93 7 119 18 156 69 19 25 20 45 21 444
l1 418 102 3 c145 4 143 7 143 -194 l0 -156 -29 -29 c-25 -24 -38 -29 -78 -29
-74 0 -93 -18 -93 -89 0 -43 5 -65 20 -84 11 -14 20 -30 20 -35 0 -5 21 -13
46 -17 34 -5 52 -2 70 10 22 14 24 22 24 88 0 69 2 75 31 103 52 48 59 77 59
246 0 129 -3 159 -18 187 -30 56 -71 71 -189 71 -56 0 -104 4 -107 9 -3 4 -3
68 1 140 6 123 8 135 34 174 65 97 108 131 223 177 191 76 215 121 196 377 -7
87 -15 161 -18 165 -7 7 -232 -119 -288 -161 -17 -12 -42 -42 -55 -64 -22 -39
-24 -53 -24 -187 l0 -145 -30 -37 c-16 -21 -33 -38 -36 -38 -4 0 -9 84 -11
188 -6 209 -14 242 -69 285 -36 27 -179 107 -191 107 -5 0 -8 -51 -8 -112 1
-161 17 -193 143 -272 l57 -37 1 -62 c0 -34 0 -363 -1 -732 -1 -568 -4 -672
-16 -686 -10 -11 -40 -18 -100 -22 -95 -7 -124 -20 -154 -70 -17 -27 -20 -51
-20 -159 l0 -128 -44 0 c-66 0 -76 -19 -76 -151 0 -121 9 -139 73 -139 l37 0
0 -81 c0 -94 -13 -129 -68 -180 -35 -34 -40 -35 -99 -31 l-63 4 0 444 c0 273
-4 444 -9 444 -6 0 -21 -15 -35 -33 l-26 -34 0 -410 0 -411 -44 -6 c-58 -9
-85 -39 -93 -104 l-6 -52 -132 0 -132 0 5 -30 4 -30 129 0 129 0 0 -53 0 -53
-91 -78 c-84 -71 -94 -77 -116 -67 -13 6 -44 11 -68 11 l-43 0 -5 63 c-2 34
-3 233 -3 442 1 377 1 380 24 425 16 31 144 164 397 415 431 426 405 389 405
591 0 107 1 114 25 138 35 35 35 95 0 127 -22 22 -25 32 -25 108 0 77 2 86 25
107 19 17 25 33 25 64 0 30 -6 47 -25 66 -23 23 -25 32 -25 113 0 80 2 89 25
111 29 27 34 83 10 117 -35 50 -123 46 -151 -8 -21 -41 -11 -94 21 -115 23
-15 25 -22 25 -103 0 -80 -2 -90 -24 -111 -34 -31 -41 -71 -21 -110 9 -17 23
-34 31 -37 11 -4 14 -26 14 -93 0 -67 -3 -89 -14 -93 -23 -9 -48 -66 -42 -92
3 -13 17 -37 31 -53 22 -27 25 -39 24 -108 -1 -117 -12 -179 -40 -217 -13 -18
-178 -185 -366 -371 l-343 -339 0 258 0 257 115 118 c75 76 122 134 136 164
17 39 24 46 49 46 58 0 60 3 60 116 0 113 -6 124 -64 124 l-26 0 0 291 0 291
30 35 c33 38 37 61 15 102 -32 62 -128 57 -154 -8 -16 -38 -8 -76 24 -105 l25
-23 0 -290 0 -290 -42 -7 c-37 -6 -45 -4 -76 26 -19 18 -47 51 -63 72 l-29 39
0 335 0 335 82 101 c45 56 93 120 105 143 30 53 38 123 23 198 -15 74 -39 121
-129 258 l-71 107 -48 0 c-34 0 -54 -5 -64 -17z m135 -147 c37 -57 67 -110 67
-118 0 -8 -22 -36 -50 -63 l-50 -49 0 36 c0 46 -21 65 -55 50 l-25 -11 6 -181
c4 -108 2 -180 -3 -180 -9 0 -90 97 -126 150 -21 30 -22 147 -3 203 14 37 156
267 166 267 3 0 35 -47 73 -104z m-587 -323 c12 -27 11 -38 -2 -82 -8 -29 -18
-49 -23 -47 -4 3 -13 29 -20 59 -11 52 -12 53 -42 49 -26 -4 -30 -8 -25 -26 3
-11 9 -38 12 -60 l7 -38 -28 18 c-34 22 -57 75 -49 112 3 15 15 56 26 91 l20
63 55 -53 c30 -30 61 -68 69 -86z m695 5 c-10 -42 -38 -86 -101 -158 l-39 -45
-1 92 0 93 67 71 68 72 7 -43 c4 -24 3 -61 -1 -82z m-1282 -72 c13 -12 30 -35
37 -53 15 -36 19 -169 5 -177 -5 -3 -27 25 -50 62 -61 101 -54 95 -84 81 -15
-7 -27 -17 -27 -23 0 -6 23 -46 50 -89 28 -43 50 -82 50 -88 0 -12 -118 47
-148 75 -43 39 -52 69 -52 179 0 58 3 118 6 135 l6 31 92 -56 c50 -31 102 -65
115 -77z m2657 -171 c-11 -29 -29 -51 -50 -65 -34 -20 -117 -53 -122 -47 -2 1
17 34 41 72 25 38 45 74 45 81 0 6 -11 16 -25 22 -28 13 -37 4 -90 -86 -16
-29 -34 -52 -39 -52 -4 0 -6 38 -5 84 4 78 6 87 34 116 17 18 71 56 120 86
l90 54 9 -110 c7 -94 6 -116 -8 -155z m-532 181 c59 -38 73 -63 79 -148 4 -67
-1 -69 -57 -30 -62 43 -80 74 -84 147 -2 36 -1 65 2 65 4 0 31 -15 60 -34z
m-2940 -325 c124 -67 152 -89 172 -137 16 -37 19 -199 5 -208 -5 -3 -36 41
-70 98 -33 58 -65 107 -70 110 -5 3 -19 -2 -31 -12 l-22 -18 61 -108 c34 -60
60 -111 57 -113 -9 -9 -144 59 -170 86 -43 45 -55 91 -62 231 -6 102 -4 130 6
130 7 0 63 -27 124 -59z m2270 -807 c3 -9 6 -33 6 -54 0 -66 -5 -70 -76 -70
l-64 0 0 70 0 70 64 0 c49 0 65 -4 70 -16z m-824 -264 l0 -80 -80 0 -80 0 0
80 0 80 80 0 80 0 0 -80z m-560 -895 l0 -96 -97 3 -98 3 -3 93 -3 92 101 0
100 0 0 -95z m1965 0 l0 -90 -97 -3 -98 -3 0 96 0 96 98 -3 97 -3 0 -90z
m-248 -511 c9 -12 13 -52 13 -125 0 -87 -3 -109 -17 -120 -20 -17 -229 -15
-250 3 -10 8 -13 39 -11 127 3 112 4 116 28 128 17 8 59 11 124 9 82 -3 102
-7 113 -22z m-1109 4 c17 -17 17 -229 0 -246 -8 -8 -51 -12 -130 -12 -141 0
-138 -3 -138 135 0 138 -3 135 138 135 79 0 122 -4 130 -12z m128 -397 l100
-89 1 -111 2 -111 -50 -42 c-54 -46 -58 -57 -29 -83 20 -18 21 -18 63 22 l42
41 68 -5 67 -6 0 -103 0 -104 30 0 30 0 0 104 0 104 68 4 c67 5 67 5 111 -35
l44 -40 19 22 c10 13 18 27 18 31 0 5 -20 25 -45 46 -45 36 -46 38 -43 88 l3
51 135 -3 c97 -1 130 1 118 8 -14 8 -15 16 -8 35 l10 25 -130 0 -130 0 0 33
c0 28 12 42 102 120 90 79 104 88 131 83 16 -3 45 -6 63 -6 l34 0 0 -285 0
-285 -34 0 c-19 0 -46 -4 -59 -9 -21 -8 -29 -5 -53 20 -33 34 -54 37 -72 8
-12 -19 -10 -25 22 -58 31 -32 35 -41 32 -81 l-3 -45 -359 0 -359 0 -3 49 c-3
45 0 52 27 73 37 29 39 46 8 66 -22 14 -26 14 -48 -8 -22 -21 -30 -23 -84 -18
l-60 5 0 284 0 283 45 4 c25 2 52 4 61 5 8 1 60 -38 115 -87z m426 -58 c15
-14 18 -32 18 -122 0 -150 -1 -151 -141 -151 -61 0 -119 5 -130 10 -17 10 -19
22 -19 127 0 155 -2 153 143 153 89 0 114 -3 129 -17z m-564 -499 c21 -14 22
-22 22 -134 0 -144 4 -140 -143 -140 -139 0 -139 0 -135 151 3 110 4 114 28
126 37 19 200 17 228 -3z m1114 -1 c15 -14 18 -32 18 -126 0 -147 0 -147 -137
-147 -147 0 -143 -4 -143 140 0 150 0 150 144 150 78 0 103 -3 118 -17z"/>
<path d="M4378 4429 c-23 -13 -23 -35 1 -66 19 -23 19 -53 0 -53 -5 0 -9 -11
-9 -25 0 -32 33 -51 54 -30 16 16 66 21 66 6 0 -5 10 -13 22 -17 22 -7 48 16
48 43 0 23 -42 32 -71 16 -23 -14 -28 -14 -52 2 -30 19 -35 46 -12 65 19 16
19 35 -1 54 -18 19 -23 19 -46 5z"/>
<path d="M3379 4364 c-45 -45 -47 -46 -70 -31 -16 11 -29 13 -39 7 -12 -7 -10
-14 15 -40 16 -16 34 -30 40 -30 18 0 128 117 121 129 -11 18 -19 14 -67 -35z"/>
<path d="M3810 3944 c-17 -20 -1 -70 22 -68 9 1 14 -4 12 -11 -6 -15 22 -39
36 -30 6 4 23 -7 39 -24 33 -36 51 -39 74 -13 23 25 21 39 -7 57 -23 15 -27
15 -49 0 -22 -14 -26 -14 -48 4 -20 17 -22 23 -12 39 25 41 -37 83 -67 46z"/>
<path d="M3378 3404 c-44 -45 -46 -46 -69 -31 -17 11 -29 13 -39 6 -12 -8 -10
-14 18 -39 18 -17 36 -30 40 -30 4 0 34 26 65 58 47 47 55 61 44 70 -10 9 -23
1 -59 -34z"/>
<path d="M4404 3452 c-17 -12 -32 -79 -25 -113 6 -31 34 -60 46 -48 3 3 -2 20
-10 36 -13 25 -13 40 -5 78 11 51 10 58 -6 47z"/>
<path d="M4490 3441 c0 -5 5 -13 10 -16 14 -9 13 -98 -2 -113 -17 -17 -2 -28
17 -12 8 7 15 23 15 36 0 13 5 24 10 24 6 0 10 7 10 15 0 8 -4 15 -9 15 -5 0
-11 12 -13 27 -3 26 -38 48 -38 24z"/>
<path d="M4476 7580 c-55 -49 -108 -102 -118 -117 -46 -70 -43 -142 12 -279
l30 -76 0 -729 0 -729 35 39 35 38 0 690 0 691 54 42 c73 55 134 123 142 155
4 15 4 52 1 83 -6 61 -73 282 -85 282 -4 -1 -52 -41 -106 -90z m130 -205 c4
-29 0 -49 -15 -71 -19 -31 -88 -91 -95 -83 -2 2 5 33 16 68 19 62 19 65 2 78
-10 7 -23 12 -29 10 -5 -2 -22 -37 -36 -78 l-27 -74 -16 54 c-30 101 -20 129
81 219 l68 61 23 -72 c13 -39 25 -90 28 -112z"/>
<path d="M5830 7026 c-194 -95 -227 -118 -266 -188 -28 -52 -29 -56 -31 -218
-1 -91 -7 -193 -13 -228 -7 -43 -9 -222 -5 -567 6 -546 5 -555 -47 -589 -16
-10 -60 -16 -145 -20 -196 -8 -223 -33 -223 -210 l0 -109 -117 -119 c-71 -72
-110 -118 -100 -118 9 0 17 -6 17 -13 0 -32 37 -6 145 103 l115 117 0 106 c0
114 8 150 37 162 10 4 72 10 138 12 139 6 176 20 218 86 l27 41 0 536 c0 341
4 549 11 573 11 41 33 55 180 116 185 77 233 177 227 472 l-3 137 -165 -82z
m91 -229 c-17 -129 -49 -172 -160 -223 -40 -19 -77 -34 -82 -34 -4 0 22 50 58
111 53 88 65 114 56 127 -23 37 -45 18 -112 -90 -36 -59 -69 -107 -73 -108
-12 0 -9 150 3 193 15 56 62 95 194 164 l120 62 3 -62 c2 -34 -1 -97 -7 -140z"/>
<path d="M6379 6777 c-177 -56 -220 -81 -253 -149 -51 -108 -95 -539 -66 -646
10 -39 25 -56 133 -152 l47 -43 0 -144 c0 -106 -4 -151 -14 -172 -8 -15 -226
-237 -484 -492 -319 -315 -478 -478 -493 -509 l-24 -45 -5 -585 -5 -585 -28
-52 c-20 -40 -135 -160 -457 -480 -348 -347 -434 -437 -452 -478 -20 -46 -23
-69 -26 -258 l-4 -207 35 0 36 0 3 203 c3 184 5 205 25 242 29 54 477 496 528
521 35 17 66 19 263 22 185 3 222 1 222 -11 0 -8 8 -21 18 -30 15 -14 41 -17
139 -17 154 0 153 -1 153 137 0 110 -4 118 -58 129 l-32 7 0 85 0 86 51 49
c72 69 97 77 241 77 118 0 124 -1 147 -25 31 -34 89 -34 119 -2 32 34 30 96
-3 127 -25 23 -25 24 -25 217 0 193 0 194 25 218 24 24 28 25 180 25 l155 0 0
-38 c0 -69 13 -77 140 -80 161 -5 160 -6 160 153 l0 124 31 36 c17 19 44 44
60 56 27 19 30 19 59 4 17 -9 41 -14 53 -12 l22 4 -22 2 c-17 1 -21 5 -16 18
4 11 3 14 -5 9 -8 -5 -10 -2 -6 8 4 10 1 16 -9 16 -11 0 -14 8 -10 31 3 23 1
29 -8 23 -7 -4 -3 7 10 24 17 25 19 32 7 32 -18 0 -56 -47 -56 -70 0 -11 -10
-20 -27 -25 -14 -3 -56 -35 -93 -71 l-67 -64 -95 0 c-111 0 -128 -10 -128 -78
l0 -42 -165 0 c-258 0 -258 0 -256 -292 l1 -199 -35 -34 -34 -35 -139 0 c-135
0 -139 -1 -184 -29 -25 -16 -49 -34 -52 -40 -4 -6 -12 -11 -18 -11 -16 0 -6
358 11 390 19 35 440 458 473 476 17 9 57 14 109 14 72 0 84 -3 111 -25 40
-34 82 -33 119 4 20 20 29 39 29 61 0 22 -9 41 -29 61 -40 39 -82 39 -123 -1
-28 -29 -33 -30 -116 -30 -66 0 -95 -5 -129 -21 -46 -22 -471 -449 -501 -504
-15 -26 -17 -76 -20 -372 l-3 -343 -63 0 c-78 0 -96 -16 -96 -83 l0 -47 -207
0 -207 0 141 143 c191 192 193 196 193 424 0 281 -39 217 388 645 l367 367
480 3 c432 3 484 5 519 21 21 9 78 55 125 102 l87 85 115 20 c213 38 242 67
294 304 20 87 33 161 30 164 -6 6 -172 -30 -268 -59 -120 -36 -159 -91 -192
-269 l-18 -95 -91 -92 c-68 -68 -101 -94 -131 -102 -40 -11 -865 -17 -865 -6
0 8 161 159 184 172 11 7 41 12 66 13 79 0 117 17 189 86 l68 64 100 0 c139 0
138 0 137 139 l-2 110 72 70 c40 38 83 72 97 74 13 3 73 16 132 30 122 29 164
54 192 114 19 39 83 339 74 347 -8 8 -280 -63 -326 -85 -78 -38 -105 -94 -134
-280 l-11 -77 -98 -97 c-106 -106 -102 -104 -207 -90 -41 6 -58 4 -78 -9 -24
-16 -25 -20 -25 -120 l0 -104 -50 -45 c-47 -42 -53 -45 -122 -49 -40 -3 -86
-12 -103 -20 -16 -9 -244 -227 -505 -486 l-475 -469 -3 305 c-2 288 -1 307 18
347 14 28 201 219 614 625 326 321 601 596 610 611 12 20 16 53 16 121 0 51 4
99 8 106 5 7 56 23 113 36 57 14 116 29 130 34 43 17 98 81 113 132 17 56 60
299 54 305 -7 7 -280 -66 -318 -85 -63 -32 -97 -80 -113 -162 -35 -168 -50
-266 -49 -313 4 -115 -4 -133 -86 -217 -41 -43 -79 -78 -84 -78 -4 0 -8 101
-8 224 l0 224 30 30 c40 41 40 83 1 123 -20 20 -39 29 -61 29 -22 0 -41 -9
-61 -29 -37 -37 -38 -79 -4 -119 21 -25 25 -40 25 -92 l0 -62 -41 33 c-73 58
-79 75 -79 236 l0 141 33 11 c17 5 70 20 116 31 47 12 96 27 110 35 36 19 88
75 101 109 11 30 60 297 60 328 0 24 -5 23 -161 -25z m62 -159 c-23 -127 -40
-162 -89 -186 -38 -20 -132 -46 -138 -39 -2 2 21 32 51 67 30 35 55 69 55 76
0 7 -10 19 -22 25 -20 11 -28 6 -85 -57 -50 -54 -62 -64 -59 -44 3 14 10 52
17 84 16 85 41 106 175 149 60 20 110 34 111 33 2 -2 -6 -50 -16 -108z m444
-320 c-3 -13 -12 -59 -21 -103 -26 -129 -46 -154 -146 -181 -80 -21 -83 -18
-36 37 74 87 74 87 51 110 -20 20 -20 20 -82 -43 l-63 -63 7 50 c9 68 32 121
61 139 19 13 197 72 227 75 4 1 5 -9 2 -21z m461 -685 c-2 -10 -12 -56 -21
-103 -21 -103 -36 -135 -78 -160 -33 -21 -135 -46 -144 -36 -4 3 20 33 51 66
58 61 63 75 33 94 -14 9 -29 -1 -83 -54 -40 -40 -64 -57 -61 -45 3 11 9 40 12
65 15 98 41 120 183 161 118 33 114 33 108 12z m-538 -589 c8 -2 12 -26 12
-74 l0 -70 -110 0 -110 0 0 80 0 80 98 -6 c53 -3 103 -7 110 -10z m792 -6 c-1
-31 -50 -201 -64 -223 -9 -14 -29 -31 -44 -39 -25 -13 -118 -36 -145 -36 -6 0
17 28 51 63 64 65 73 85 46 107 -13 11 -25 4 -81 -51 l-65 -64 6 54 c9 67 36
122 70 140 28 15 180 59 209 60 9 1 17 -5 17 -11z m-880 -1148 l0 -100 -100 0
-100 0 0 100 0 100 100 0 100 0 0 -100z m-1147 -950 l58 0 -3 -82 -3 -83 -103
-3 c-102 -3 -102 -3 -112 23 -11 30 -13 115 -3 140 5 15 15 16 57 11 28 -3 77
-6 109 -6z"/>
<path d="M2437 6693 c-13 -12 -7 -50 9 -64 14 -11 18 -10 30 6 8 10 14 25 14
32 0 7 4 13 9 13 17 0 23 -20 11 -35 -10 -12 -9 -15 4 -15 13 0 17 7 14 33 -2
24 -8 32 -23 32 -11 0 -24 -10 -30 -22 -5 -13 -13 -23 -17 -23 -12 0 -19 18
-8 25 5 3 10 10 10 16 0 10 -14 12 -23 2z"/>
<path d="M1220 6647 c0 -12 7 -80 16 -152 25 -214 51 -245 244 -294 l114 -29
72 -74 c62 -63 73 -80 83 -126 7 -33 11 -172 11 -371 l0 -318 -24 -22 c-48
-45 -41 -118 15 -146 34 -18 50 -19 82 -4 52 23 61 91 20 140 l-28 33 -3 358
c-2 283 -5 366 -16 393 -8 19 -50 71 -94 117 l-80 83 -12 100 c-13 108 -29
157 -63 193 -31 34 -65 49 -209 98 -124 41 -128 42 -128 21z m179 -107 c44
-17 90 -39 104 -50 24 -19 41 -68 51 -145 l5 -40 -54 58 c-35 38 -60 58 -72
55 -32 -6 -25 -37 21 -92 25 -29 46 -56 46 -59 0 -9 -101 22 -127 39 -35 22
-53 57 -62 120 -22 147 -22 144 -6 144 9 0 51 -14 94 -30z"/>
<path d="M2434 6586 c-16 -42 36 -83 74 -60 20 13 23 65 4 72 -11 3 -12 0 -3
-17 15 -27 6 -41 -25 -41 -29 0 -42 24 -24 45 10 12 9 15 -4 15 -9 0 -19 -6
-22 -14z"/>
<path d="M2442 6488 c-21 -21 -14 -57 12 -69 54 -25 100 16 69 60 -16 23 -62
28 -81 9z m76 -30 c4 -22 -42 -35 -63 -18 -12 10 -13 16 -3 27 15 19 62 13 66
-9z"/>
<path d="M2390 6380 c0 -5 9 -10 20 -10 16 0 20 -7 20 -30 0 -24 6 -33 26 -41
40 -15 74 11 74 56 l0 35 -70 0 c-40 0 -70 -4 -70 -10z m130 -36 c0 -17 -48
-30 -62 -16 -6 6 -8 17 -5 25 7 18 67 10 67 -9z"/>
<path d="M5799 6345 c-54 -29 -60 -102 -13 -146 24 -22 24 -23 24 -241 l0
-218 -38 0 c-63 0 -72 -18 -72 -148 0 -125 8 -142 66 -142 41 0 49 -14 39 -68
-6 -32 -56 -87 -385 -417 -208 -209 -386 -396 -396 -415 -17 -31 -19 -64 -22
-272 l-3 -237 -33 -19 c-23 -13 -39 -35 -51 -65 -17 -44 -16 -47 1 -84 11 -21
34 -47 52 -58 l32 -20 -2 -240 c-3 -211 -5 -244 -22 -275 -10 -19 -206 -224
-436 -455 -364 -365 -423 -428 -447 -480 l-28 -60 -1 -870 c0 -479 2 -829 6
-780 3 50 7 84 8 78 1 -7 9 -13 18 -13 13 0 15 -8 11 -40 -2 -22 -1 -43 4 -45
4 -3 9 365 11 817 l3 823 23 50 c18 40 109 136 447 475 317 318 429 436 444
470 19 41 21 65 21 285 0 132 4 245 8 250 4 6 22 21 39 33 66 47 64 154 -4
197 l-32 20 -1 218 c0 174 3 225 15 255 11 25 136 158 384 407 203 204 376
384 385 402 9 18 16 43 16 57 0 14 4 36 10 50 8 22 16 26 48 26 21 0 43 5 50
12 8 8 12 50 12 125 0 130 -11 153 -75 153 l-35 0 0 220 0 219 25 25 c36 36
34 88 -4 127 -32 32 -62 36 -102 14z m141 -749 l0 -95 -52 -6 c-29 -4 -71 -5
-93 -3 l-40 3 -3 98 -3 97 96 0 95 0 0 -94z m-1856 -4804 c-2 -24 3 -40 13
-47 13 -10 13 -14 3 -20 -9 -6 -11 -4 -5 5 6 10 4 12 -8 7 -15 -6 -17 2 -17
56 0 37 4 57 9 49 4 -8 7 -30 5 -50z"/>
<path d="M3614 6295 c-8 -32 11 -55 46 -55 35 0 64 31 55 59 -6 21 -35 30 -35
11 0 -5 5 -10 10 -10 16 0 11 -27 -6 -34 -23 -9 -54 2 -54 20 0 8 5 14 10 14
6 0 10 5 10 10 0 21 -30 9 -36 -15z"/>
<path d="M2395 6273 c15 -15 134 -55 148 -50 7 2 -14 13 -45 25 -73 27 -116
38 -103 25z"/>
<path d="M3612 6203 c3 -26 7 -28 51 -31 37 -2 47 0 47 12 0 12 -10 16 -40 16
-29 0 -40 4 -40 15 0 8 -5 15 -11 15 -6 0 -9 -12 -7 -27z"/>
<path d="M2441 6186 c-32 -39 24 -97 67 -70 18 11 30 74 14 74 -5 0 -8 -10 -8
-22 1 -13 -6 -24 -14 -26 -11 -2 -16 5 -15 25 0 31 -25 42 -44 19z"/>
<path d="M3620 6135 c-17 -21 -8 -50 18 -53 15 -2 25 4 34 22 6 14 15 26 20
26 11 0 10 -28 -2 -35 -6 -4 -8 -11 -4 -16 8 -14 34 9 34 30 0 19 -19 41 -35
41 -7 0 -17 -11 -23 -25 -13 -28 -32 -34 -32 -10 0 8 5 15 10 15 6 0 10 5 10
10 0 15 -16 12 -30 -5z"/>
<path d="M755 6113 c3 -16 12 -82 21 -148 24 -185 50 -216 225 -269 84 -26 87
-28 93 -60 4 -19 6 -101 5 -183 -1 -126 2 -156 17 -191 13 -29 122 -147 352
-381 182 -187 332 -344 332 -350 0 -17 41 -24 66 -10 29 15 35 69 7 69 -21 0
-267 241 -304 299 l-29 45 0 219 0 219 25 30 c34 40 34 90 0 124 -24 24 -25
29 -25 161 0 130 1 136 25 165 51 60 16 148 -59 148 -48 0 -65 -8 -81 -41 -23
-44 -19 -78 15 -109 l30 -28 0 -132 0 -132 -30 -30 c-22 -22 -30 -39 -30 -65
0 -26 8 -42 30 -63 l30 -28 0 -192 c0 -105 -3 -190 -8 -188 -15 6 -269 274
-280 294 -6 12 -14 104 -17 210 -7 208 -21 376 -37 441 -11 44 -57 99 -98 115
-58 24 -254 88 -266 88 -9 0 -12 -9 -9 -27z m265 -132 c33 -23 47 -54 54 -121
l7 -55 -49 54 c-33 36 -55 52 -68 49 -32 -6 -27 -32 17 -87 23 -28 39 -54 36
-57 -3 -4 -28 1 -56 11 -49 16 -94 56 -105 92 -5 18 -26 165 -26 183 0 12 157
-45 190 -69z"/>
<path d="M2433 6070 c0 -29 2 -30 49 -30 26 0 48 5 48 10 0 6 -11 10 -24 10
-35 0 -56 10 -56 26 0 8 -4 14 -8 14 -5 0 -9 -13 -9 -30z"/>
<path d="M3576 6050 c5 -5 34 -18 64 -29 30 -10 64 -22 75 -26 15 -6 17 -5 10
3 -11 12 -131 62 -149 62 -6 0 -7 -3 0 -10z"/>
<path d="M2430 6001 c0 -6 19 -11 43 -13 29 -2 42 -8 42 -18 0 -10 -13 -16
-42 -18 -24 -2 -43 -8 -43 -13 0 -6 21 -9 48 -7 47 3 47 3 50 41 l3 37 -50 0
c-28 0 -51 -4 -51 -9z"/>
<path d="M3630 5970 c-8 -5 -15 -25 -16 -45 l-1 -35 48 0 c59 0 64 16 9 25
-25 4 -40 12 -40 21 0 14 7 17 50 18 14 1 27 6 30 11 7 13 -61 18 -80 5z"/>
<path d="M2431 5903 c-1 -7 -8 -13 -16 -13 -8 0 -15 -4 -15 -10 0 -5 7 -10 15
-10 8 0 15 -5 15 -12 0 -9 3 -9 12 0 7 7 29 12 50 12 33 0 38 3 37 23 0 12 -3
16 -6 10 -2 -7 -22 -13 -43 -13 -21 0 -41 6 -43 13 -4 10 -6 10 -6 0z"/>
<path d="M3617 5864 c-18 -18 -3 -25 46 -22 28 2 52 8 52 13 0 12 -87 19 -98
9z"/>
<path d="M2480 5830 c-42 -5 -45 -7 -45 -35 0 -22 5 -31 20 -33 19 -3 19 -2 1
12 -19 16 -14 36 10 36 8 0 14 -10 14 -25 0 -28 25 -44 41 -28 6 6 9 26 7 44
-3 34 -3 34 -48 29z m38 -37 c-2 -10 -8 -18 -13 -18 -5 0 -11 8 -13 18 -2 10
3 17 13 17 10 0 15 -7 13 -17z"/>
<path d="M3623 5805 c-17 -13 -14 -56 5 -63 9 -3 11 3 6 22 -3 15 -2 26 4 26
5 0 13 -11 16 -24 3 -13 13 -27 23 -30 24 -10 47 17 39 47 -4 19 -14 26 -42
29 -19 2 -42 -1 -51 -7z m77 -30 c0 -8 -7 -15 -15 -15 -8 0 -15 7 -15 15 0 8
7 15 15 15 8 0 15 -7 15 -15z"/>
<path d="M2440 5716 c-7 -9 -10 -26 -6 -41 6 -24 11 -26 49 -23 38 3 42 6 45
32 2 16 -2 34 -9 40 -9 8 -10 5 -5 -15 4 -18 1 -31 -9 -39 -8 -7 -15 -9 -16
-4 -1 5 -2 20 -2 34 -2 29 -28 38 -47 16z"/>
<path d="M390 5712 c0 -16 60 -296 70 -328 12 -35 60 -84 106 -107 17 -9 75
-25 129 -36 66 -13 103 -25 112 -37 14 -19 18 -237 5 -307 l-7 -38 -80 80
c-71 73 -79 84 -80 121 -2 96 -119 127 -163 43 -32 -59 6 -123 79 -132 42 -6
55 -17 299 -266 707 -721 811 -825 842 -842 27 -15 62 -18 196 -21 l162 -4 0
-59 c0 -93 12 -100 162 -98 l120 1 75 -73 c41 -41 80 -83 86 -94 6 -11 14 -82
17 -160 6 -166 15 -188 106 -285 48 -51 63 -74 69 -107 13 -80 83 -107 136
-54 55 56 23 141 -54 141 -30 0 -44 10 -99 68 -41 44 -68 82 -76 109 -9 30
-12 154 -12 446 -1 446 -4 481 -60 562 -16 23 -44 55 -61 69 -63 53 -86 60
-234 66 -148 7 -169 13 -221 62 -40 37 -78 36 -82 -3 -3 -30 32 -65 102 -101
34 -18 64 -23 183 -27 137 -6 143 -7 184 -36 59 -42 97 -99 109 -166 6 -31 9
-153 8 -271 l-3 -216 -66 62 -66 61 -6 90 c-6 106 -21 125 -93 125 -32 0 -50
6 -65 21 -18 18 -29 21 -76 16 -62 -7 -81 -18 -85 -54 l-3 -25 -140 1 c-124 1
-145 4 -182 24 -47 25 -796 787 -825 840 -15 27 -18 60 -18 227 0 172 -4 213
-29 351 -33 176 -54 228 -109 264 -51 33 -362 117 -362 97z m188 -107 c109
-29 146 -47 167 -79 17 -25 47 -166 36 -166 -4 0 -30 27 -59 60 -55 62 -84 74
-101 42 -8 -15 1 -31 50 -85 33 -37 54 -67 47 -67 -8 0 -41 7 -73 16 -90 23
-109 47 -139 174 -24 99 -30 130 -23 130 1 0 44 -11 95 -25z m1635 -1685 c12
-14 29 -20 61 -20 l44 0 4 -72 c2 -40 2 -79 0 -85 -3 -9 -34 -13 -108 -13
l-104 0 0 105 0 105 43 0 c30 0 48 -6 60 -20z"/>
<path d="M3617 5703 c-3 -5 -4 -36 -4 -70 l0 -63 48 0 c27 0 49 5 49 10 0 6
-18 10 -41 10 -33 0 -40 3 -37 18 2 12 14 18 41 20 48 4 48 20 0 24 -26 2 -38
8 -38 18 0 10 12 16 38 18 20 2 37 7 37 13 0 11 -87 12 -93 2z"/>
<path d="M2390 5616 c0 -9 8 -20 18 -23 9 -4 20 -11 24 -17 5 -7 8 -7 8 2 0 8
16 12 45 12 25 0 45 5 45 10 0 6 -18 10 -39 10 -22 0 -42 5 -44 13 -4 9 -8 9
-15 -2 -9 -12 -13 -12 -26 -2 -14 11 -16 11 -16 -3z"/>
<path d="M6806 5535 c14 -19 31 -32 36 -29 10 6 -39 64 -54 64 -5 0 3 -16 18
-35z"/>
<path d="M2396 5551 c15 -14 144 -60 144 -51 0 4 -32 19 -71 34 -75 28 -89 31
-73 17z"/>
<path d="M3576 5541 c13 -13 111 -51 131 -51 27 0 8 11 -64 36 -76 27 -81 28
-67 15z"/>
<path d="M6720 5510 c-13 -24 -4 -43 39 -84 31 -29 55 -30 31 -1 -10 12 -9 16
4 21 22 8 20 47 -2 67 -25 23 -59 21 -72 -3z m68 -26 c2 -11 -3 -26 -11 -33
-12 -9 -18 -6 -31 14 -20 30 -13 47 17 43 13 -2 23 -11 25 -24z"/>
<path d="M2390 5463 c0 -5 7 -17 15 -27 13 -17 15 -18 15 -3 0 14 10 17 55 17
30 0 55 5 55 10 0 6 -30 10 -70 10 -38 0 -70 -3 -70 -7z"/>
<path d="M3701 5442 l-1 -34 -31 27 c-40 33 -82 31 -87 -3 -4 -24 13 -52 31
-52 7 0 7 4 -1 12 -18 18 -15 48 5 48 9 0 32 -14 50 -32 39 -38 52 -29 42 27
-6 39 -6 39 -8 7z"/>
<path d="M6656 5444 c-24 -23 -19 -40 5 -18 15 14 24 16 37 8 23 -15 27 -43 7
-50 -21 -8 -32 3 -17 18 17 17 15 33 -3 18 -17 -14 -20 -46 -5 -55 14 -9 60
21 60 38 0 16 -42 57 -57 57 -7 0 -19 -7 -27 -16z"/>
<path d="M6594 5419 c3 -14 17 -50 31 -80 14 -29 23 -43 21 -28 -3 14 -17 50
-31 80 -14 29 -23 43 -21 28z"/>
<path d="M2442 5388 c-16 -16 -15 -53 2 -67 21 -18 66 -9 82 14 12 18 11 24
-2 43 -17 24 -62 30 -82 10z m71 -22 c7 -19 -17 -39 -40 -34 -10 2 -19 13 -21
26 -3 18 1 22 26 22 17 0 32 -6 35 -14z"/>
<path d="M3626 5344 c-32 -32 -10 -74 39 -74 33 0 55 20 55 49 0 18 -31 41
-55 41 -13 0 -31 -7 -39 -16z m65 -20 c11 -14 11 -18 -4 -29 -23 -17 -57 -8
-57 15 0 30 40 39 61 14z"/>
<path d="M6516 5344 c-9 -24 -7 -41 4 -24 8 12 15 9 43 -18 51 -50 67 -38 17
13 -49 50 -55 52 -64 29z"/>
<path d="M2443 5283 c-8 -2 -13 -22 -13 -45 0 -32 3 -39 16 -34 9 3 40 6 70 6
30 0 54 5 54 10 0 6 -9 10 -20 10 -14 0 -20 7 -20 24 0 32 -45 47 -87 29z m75
-35 c3 -15 -4 -18 -32 -18 -30 0 -36 4 -36 21 0 17 5 20 32 17 22 -2 34 -9 36
-20z"/>
<path d="M6418 5258 c-24 -19 -33 -58 -14 -58 10 0 15 8 13 23 -1 16 3 22 18
22 17 0 20 -8 23 -57 2 -32 6 -58 11 -58 11 0 65 59 60 65 -3 3 -15 -4 -27
-15 l-22 -21 0 28 c0 31 -19 75 -35 80 -6 2 -18 -2 -27 -9z"/>
<path d="M3616 5225 c-3 -9 -6 -28 -6 -41 0 -23 3 -24 70 -24 40 0 70 4 70 10
0 6 -9 10 -19 10 -14 0 -21 8 -23 28 -3 24 -8 27 -44 30 -31 2 -43 -1 -48 -13z
m84 -30 c0 -10 -11 -15 -35 -15 -28 0 -35 4 -35 19 0 11 8 21 18 24 23 5 52
-10 52 -28z"/>
<path d="M3042 5207 c-1 -10 -6 -16 -11 -12 -6 3 -15 -3 -21 -12 -9 -15 -10
-15 -4 6 4 16 3 21 -5 17 -8 -5 -11 -189 -11 -644 l0 -637 -25 -24 c-35 -33
-35 -94 0 -117 21 -14 25 -24 26 -68 0 -28 4 -59 8 -69 6 -17 8 -17 20 -4 7 9
18 14 24 11 9 -3 11 12 9 51 -3 44 0 60 17 81 27 34 27 85 1 109 -19 18 -20
33 -23 674 -1 361 -3 648 -5 638z"/>
<path d="M2442 5168 c-32 -32 8 -82 56 -69 20 5 28 15 30 35 2 16 -1 33 -7 39
-7 7 -10 2 -8 -18 1 -15 -4 -30 -10 -32 -9 -3 -13 6 -13 26 0 23 -5 31 -18 31
-10 0 -23 -5 -30 -12z"/>
<path d="M6383 5168 c21 -51 21 -52 4 -45 -9 4 -24 10 -32 13 -8 3 -15 2 -15
-3 0 -5 20 -19 45 -31 51 -25 57 -17 28 43 -15 32 -42 52 -30 23z"/>
<path d="M3625 5124 c-34 -34 -14 -74 36 -74 43 0 62 21 52 58 -8 31 -22 27
-20 -4 1 -15 -4 -29 -10 -31 -9 -3 -13 6 -13 25 0 35 -23 48 -45 26z"/>
<path d="M6317 5078 c22 -57 43 -93 43 -75 0 17 -53 137 -60 137 -5 0 3 -28
17 -62z"/>
<path d="M2432 5058 c2 -26 5 -28 50 -28 26 0 48 5 48 10 0 6 -16 10 -36 10
-23 0 -42 6 -50 18 -12 15 -13 14 -12 -10z"/>
<path d="M6190 5041 c0 -15 83 -103 89 -93 3 4 14 11 24 15 9 4 17 17 17 30 0
47 -68 77 -89 40 -9 -17 -10 -17 -16 0 -7 17 -25 24 -25 8z m110 -51 c0 -10
-7 -21 -16 -24 -8 -3 -12 -2 -9 4 3 5 -4 14 -15 20 -22 12 -27 36 -7 43 16 6
47 -22 47 -43z"/>
<path d="M3614 5005 c1 -23 5 -25 54 -25 33 0 51 4 47 10 -3 6 -22 10 -41 10
-22 0 -37 6 -40 15 -9 24 -22 17 -20 -10z"/>
<path d="M6160 5007 c0 -5 6 -14 13 -22 7 -7 26 -27 41 -45 15 -18 30 -30 33
-26 4 4 -14 28 -40 54 -26 26 -47 43 -47 39z"/>
<path d="M6127 4968 c56 -73 77 -97 85 -92 11 7 -63 103 -81 104 -9 0 -10 -4
-4 -12z"/>
<path d="M130 4947 c0 -26 60 -268 76 -306 18 -42 58 -87 95 -107 15 -7 80
-23 145 -34 l119 -21 133 -132 c73 -73 140 -144 148 -159 10 -20 14 -66 14
-178 0 -82 -1 -150 -3 -150 -2 0 -33 29 -68 64 -61 60 -104 84 -180 100 -27 6
-29 9 -89 156 -68 170 -91 184 -325 206 -91 9 -169 13 -172 10 -7 -7 68 -207
102 -276 28 -55 68 -94 117 -114 20 -9 110 -23 200 -31 90 -9 180 -21 202 -26
31 -8 66 -38 176 -152 168 -174 620 -663 620 -671 0 -3 -76 -6 -169 -6 l-168
0 -166 169 c-91 94 -174 182 -183 196 -11 17 -20 58 -24 111 -7 90 -20 118
-74 158 -24 18 -45 21 -159 24 -126 4 -133 5 -160 30 -33 31 -86 35 -116 8
-69 -62 4 -181 89 -146 17 7 36 22 41 33 10 18 19 19 128 15 161 -7 191 -29
191 -141 0 -102 10 -118 176 -287 85 -86 154 -160 154 -163 0 -12 -312 -8
-355 4 -27 8 -62 33 -111 81 -62 60 -77 82 -105 151 -38 95 -86 152 -137 167
-42 11 -175 13 -246 4 -33 -5 -46 -11 -46 -23 0 -9 21 -54 46 -101 92 -172
112 -185 267 -182 l108 2 68 -64 c115 -108 74 -100 561 -106 371 -4 429 -7
455 -22 32 -18 205 -190 205 -204 0 -5 -35 -7 -77 -6 -43 2 -106 1 -140 -3
-61 -6 -63 -8 -63 -35 l0 -28 168 -4 c147 -3 171 -5 198 -23 27 -17 224 -226
224 -237 0 -2 -181 -3 -402 -2 -231 1 -425 -2 -455 -7 -83 -16 -125 -61 -211
-228 l-73 -141 168 0 c170 0 217 5 207 21 -3 5 2 6 10 3 30 -11 95 65 146 171
26 56 56 105 65 109 9 3 166 6 348 6 l332 0 -159 -159 -158 -159 -79 -6 c-106
-10 -137 -20 -176 -58 -32 -31 -69 -120 -58 -139 3 -4 1 -10 -4 -13 -10 -7
-44 -146 -37 -153 6 -6 223 26 255 38 68 26 114 106 136 239 7 41 21 59 178
218 128 129 180 175 206 182 20 6 171 10 340 10 285 0 307 -1 346 -20 25 -12
99 -79 182 -163 114 -115 143 -151 152 -184 8 -30 11 -245 9 -730 -3 -633 -4
-691 -21 -720 -26 -49 -356 -382 -402 -406 -37 -20 -59 -22 -260 -27 l-220 -5
0 -25 0 -25 235 0 235 0 45 27 c62 36 392 372 421 428 l24 45 3 719 3 718 -25
53 c-18 39 -60 89 -166 194 -78 78 -161 151 -183 163 -33 17 -65 22 -152 26
-83 3 -117 9 -140 23 -17 10 -83 72 -148 138 l-117 119 0 115 c0 134 -7 147
-83 147 l-47 0 -2 48 c-1 26 -2 90 -3 142 0 109 -17 150 -74 184 -28 16 -54
19 -165 20 l-131 1 0 -30 0 -30 120 -5 c66 -3 130 -11 141 -17 34 -19 44 -66
44 -194 l0 -119 -53 0 c-29 0 -58 -5 -65 -12 -8 -8 -12 -54 -12 -139 0 -163
-4 -159 165 -159 l120 0 113 -113 c62 -62 110 -116 106 -119 -9 -10 -425 3
-462 14 -38 12 -66 39 -307 298 -330 356 -528 575 -547 605 -15 25 -18 52 -18
169 0 133 1 139 25 168 52 62 17 148 -60 148 -81 0 -115 -94 -55 -150 30 -28
30 -29 30 -139 0 -61 -4 -111 -8 -111 -5 0 -27 21 -49 48 -22 26 -77 87 -122
136 -50 56 -85 103 -91 125 -5 20 -10 112 -10 204 0 128 -4 176 -15 204 -9 22
-74 96 -154 178 l-139 140 -12 75 c-26 171 -57 232 -132 267 -24 11 -101 33
-173 47 -72 15 -138 30 -147 32 -11 3 -18 0 -18 -9z m203 -103 c118 -29 144
-43 162 -87 16 -38 35 -137 26 -137 -3 0 -33 27 -66 60 -60 59 -60 59 -84 41
l-24 -18 67 -70 66 -71 -72 14 c-106 20 -131 49 -167 191 -22 86 -25 103 -15
103 3 0 51 -12 107 -26z m-60 -530 c72 -7 116 -29 148 -74 23 -31 61 -130 51
-130 -4 0 -39 23 -77 50 -73 52 -110 61 -110 25 0 -13 24 -37 67 -70 105 -78
105 -79 18 -70 -130 12 -159 34 -213 160 -58 135 -57 129 -1 122 27 -4 80 -9
117 -13z m25 -854 c30 -18 80 -105 68 -117 -2 -3 -29 12 -59 32 -31 20 -61 34
-66 30 -25 -15 -9 -44 39 -75 28 -18 50 -37 50 -42 0 -16 -116 -3 -144 15 -13
9 -42 52 -65 96 l-42 81 93 0 c75 0 99 -4 126 -20z m2072 -575 l0 -105 -114 0
c-95 0 -115 3 -120 16 -8 21 -8 179 1 187 3 4 57 7 120 7 l113 0 0 -105z
m-1050 -462 c0 -5 -29 -25 -65 -46 -82 -49 -94 -63 -72 -84 14 -14 22 -12 94
31 43 25 79 42 81 36 6 -18 -61 -131 -92 -153 -27 -19 -46 -22 -159 -25 l-128
-4 35 69 c86 168 104 183 224 183 45 0 82 -3 82 -7z m450 -380 c-1 -5 -21 -24
-45 -43 -48 -37 -64 -65 -47 -82 10 -10 71 29 102 67 28 34 37 15 20 -47 -22
-79 -74 -113 -209 -133 l-44 -7 7 35 c24 126 64 192 126 207 46 11 90 12 90 3z"/>
<path d="M1026 4911 c-36 -38 -34 -62 2 -28 19 18 35 25 45 21 23 -8 21 8 -2
23 -16 10 -23 7 -45 -16z"/>
<path d="M6127 4883 c-4 -3 -7 -12 -7 -20 0 -11 4 -11 19 -1 11 7 17 16 15 20
-6 10 -18 10 -27 1z"/>
<path d="M1065 4860 c-15 -17 -16 -24 -7 -45 6 -14 20 -25 29 -25 17 1 17 1 1
11 -24 14 -23 46 2 59 23 12 40 6 40 -16 0 -16 -16 -19 -25 -4 -4 6 -11 8 -16
4 -13 -7 8 -34 27 -34 20 0 34 31 23 52 -13 24 -52 23 -74 -2z"/>
<path d="M6043 4838 l-21 -23 29 -34 c16 -19 32 -32 35 -28 4 4 -2 17 -14 30
-42 45 -16 74 28 32 15 -15 31 -22 34 -17 5 8 -53 62 -67 62 -2 0 -13 -10 -24
-22z"/>
<path d="M1121 4769 c-18 -22 -30 -43 -26 -47 3 -3 10 0 15 8 7 12 12 11 29
-4 15 -14 24 -15 40 -7 31 17 44 47 31 71 -18 33 -53 25 -89 -21z m79 6 c0
-16 -27 -45 -41 -45 -19 0 -21 31 -4 50 18 20 45 17 45 -5z"/>
<path d="M5972 4768 c-7 -7 -12 -21 -12 -33 0 -44 60 -63 80 -26 14 27 13 37
-6 55 -18 19 -45 21 -62 4z m56 -32 c2 -10 -1 -23 -7 -29 -14 -14 -57 25 -46
43 11 17 49 8 53 -14z"/>
<path d="M1215 4724 c-9 -9 -15 -28 -13 -43 2 -20 9 -27 29 -29 28 -3 59 20
59 43 0 18 -27 45 -45 45 -7 0 -21 -7 -30 -16z m55 -22 c0 -21 -18 -42 -37
-42 -20 0 -27 28 -13 45 18 21 50 19 50 -3z"/>
<path d="M5889 4688 c-7 -13 -23 -31 -36 -42 l-24 -19 27 -28 c37 -38 51 -37
23 2 -16 22 -19 33 -10 42 8 8 19 3 41 -18 35 -33 40 -21 9 19 -16 20 -19 30
-10 39 8 8 18 4 39 -16 37 -36 49 -23 14 14 -32 35 -57 37 -73 7z"/>
<path d="M1333 4693 c-19 -7 -16 -21 4 -19 21 1 30 -33 11 -45 -7 -5 -33 -9
-57 -9 l-45 0 29 -30 c16 -16 33 -30 39 -30 5 0 -1 11 -14 25 l-23 25 35 0
c51 0 68 9 68 35 0 19 -24 58 -33 54 -1 0 -8 -3 -14 -6z"/>
<path d="M1371 4569 c-35 -16 -61 -32 -58 -35 6 -7 137 51 137 60 0 10 -13 6
-79 -25z"/>
<path d="M5783 4580 c-3 -11 -11 -20 -18 -20 -7 0 -20 -11 -29 -24 -15 -23
-14 -26 15 -57 16 -17 33 -29 36 -25 4 3 -6 19 -21 35 -24 26 -25 29 -10 42
14 12 19 10 41 -15 13 -16 27 -26 30 -22 4 3 -3 16 -15 29 -25 26 -28 42 -10
53 6 4 21 -5 34 -21 13 -16 26 -26 30 -22 10 9 -45 67 -64 67 -8 0 -16 -9 -19
-20z"/>
<path d="M1405 4520 c-16 -16 -26 -32 -23 -35 2 -3 15 6 28 20 28 30 36 31 43
6 3 -12 -3 -27 -14 -37 -10 -9 -19 -22 -19 -27 0 -6 13 2 29 17 28 27 51 28
51 3 0 -6 -12 -24 -27 -39 -15 -15 -22 -28 -17 -28 6 0 23 13 38 29 31 32 30
59 -2 68 -10 2 -22 14 -27 25 -15 32 -28 32 -60 -2z"/>
<path d="M7599 4525 c-157 -28 -192 -40 -234 -77 -40 -34 -66 -98 -90 -218
l-17 -85 -355 -356 c-295 -296 -354 -360 -351 -380 8 -59 33 -39 397 324 l356
356 95 11 c222 26 248 50 319 297 23 78 41 144 41 147 0 9 -23 6 -161 -19z
m66 -82 c-26 -110 -60 -200 -84 -224 -28 -27 -102 -49 -164 -49 l-32 1 63 57
c63 58 74 80 48 101 -12 10 -23 5 -58 -25 -24 -21 -54 -47 -67 -59 l-23 -20 7
45 c11 71 40 127 74 145 26 13 182 50 230 54 9 1 11 -6 6 -26z"/>
<path d="M5678 4479 c-21 -12 -24 -59 -6 -77 18 -18 56 -14 68 7 14 28 13 38
-10 61 -23 23 -28 24 -52 9z m40 -21 c17 -17 15 -45 -3 -52 -12 -4 -45 17 -45
29 0 31 27 44 48 23z"/>
<path d="M1548 4420 c26 -11 30 -35 5 -27 -10 2 -24 6 -31 8 -8 2 -19 -4 -25
-13 -9 -13 -7 -21 7 -37 24 -26 30 -26 56 1 34 37 22 80 -23 77 -7 0 -2 -4 11
-9z m-15 -48 c-2 -7 4 -9 14 -5 11 4 14 3 9 -5 -9 -15 -43 -16 -51 -2 -3 6 -3
15 0 21 8 13 31 5 28 -9z"/>
<path d="M5603 4408 c-22 -28 -22 -37 -2 -62 23 -30 41 -33 63 -10 18 18 21
34 6 34 -5 0 -10 -7 -10 -15 0 -19 -34 -19 -50 0 -17 20 -5 45 20 45 12 0 18
5 15 10 -9 14 -31 13 -42 -2z"/>
<path d="M1580 4335 c-19 -19 -30 -35 -24 -35 10 1 74 56 74 65 0 13 -19 2
-50 -30z"/>
<path d="M1607 4302 c-35 -36 -22 -51 14 -16 27 26 49 26 49 0 0 -7 -9 -21
-20 -31 -11 -10 -20 -23 -20 -28 0 -6 14 2 30 18 35 33 37 46 12 68 -25 23
-34 21 -65 -11z"/>
<path d="M1705 4234 c-22 -13 -44 -25 -50 -27 -5 -3 -8 -7 -5 -10 3 -3 34 10
70 29 36 18 56 33 45 33 -11 -1 -38 -12 -60 -25z"/>
<path d="M1753 4203 c-16 -6 -17 -35 -1 -51 15 -15 4 -26 -18 -18 -9 3 -14 12
-10 21 3 8 1 15 -4 15 -14 0 -12 -24 2 -38 18 -18 48 -15 48 6 0 10 -5 23 -11
29 -8 8 -8 13 0 17 14 9 33 -2 26 -15 -4 -5 -1 -9 4 -9 15 0 14 23 -1 38 -13
13 -16 13 -35 5z"/>
<path d="M1795 4120 c-16 -16 -25 -33 -22 -37 4 -4 15 3 23 16 11 15 23 21 36
18 14 -4 18 -1 16 10 -5 27 -23 25 -53 -7z"/>
<path d="M1841 4074 c-25 -31 -13 -64 22 -63 l22 0 -22 9 c-25 10 -30 29 -11
48 19 19 38 14 48 -10 8 -22 9 -22 9 -2 1 22 -16 44 -35 44 -7 0 -22 -12 -33
-26z"/>
<path d="M7525 3984 c-42 -22 -48 -28 -107 -131 -48 -83 -82 -121 -355 -396
-272 -274 -307 -306 -347 -316 -25 -6 -116 -11 -202 -11 -87 0 -187 -5 -223
-11 l-66 -11 -290 -293 c-218 -220 -299 -296 -325 -304 -21 -6 -177 -11 -385
-13 -344 -3 -351 -3 -395 -26 -62 -32 -314 -284 -348 -347 l-27 -50 -3 -634
c-1 -349 0 -633 2 -630 3 3 6 91 6 197 1 141 5 191 13 189 8 -1 14 22 17 68 3
39 7 -74 10 -250 4 -246 6 -165 8 351 l2 670 25 50 c17 34 69 94 163 185 148
146 171 159 270 159 l51 0 150 -145 150 -146 103 3 c102 3 103 3 103 28 0 24
-3 25 -70 28 -38 1 -81 5 -95 8 -23 5 -230 199 -230 216 0 4 90 8 200 8 156 0
209 -3 237 -15 21 -9 105 -83 205 -182 139 -138 170 -174 179 -208 39 -153 66
-203 128 -235 30 -15 220 -50 272 -50 12 0 7 27 -28 155 -44 164 -85 198 -244
210 l-96 7 -159 159 -159 159 271 0 271 0 24 -26 c13 -14 36 -34 50 -44 24
-17 26 -18 26 -2 0 9 -4 22 -9 29 -7 8 -3 10 11 6 12 -3 18 -10 14 -16 -3 -5
-2 -7 4 -4 5 4 23 -7 38 -23 20 -21 24 -30 14 -30 -8 0 -21 6 -29 13 -12 10
-12 9 -1 -5 15 -21 2 -24 -19 -5 -7 6 -4 -1 7 -18 12 -16 30 -39 42 -49 13
-12 21 -31 21 -53 0 -70 86 -109 141 -64 18 14 24 29 24 61 0 55 -41 94 -91
88 -30 -4 -41 3 -106 69 l-72 73 200 0 200 0 80 -72 c43 -40 74 -66 67 -58
-10 13 -8 18 8 28 11 7 25 9 32 6 7 -4 -10 13 -38 39 l-50 46 30 1 c19 1 25 4
15 8 -17 8 -20 33 -5 44 6 5 5 8 -2 8 -29 0 -9 19 46 44 32 14 76 26 98 26 21
0 44 5 51 12 10 10 16 8 29 -5 11 -11 13 -17 5 -17 -7 0 -12 5 -12 11 0 5 -5
7 -11 4 -6 -5 -4 -12 8 -20 16 -12 19 -11 27 6 11 24 23 24 50 2 20 -17 20
-17 6 0 -29 38 -126 72 -105 36 7 -10 -18 -23 -35 -17 -6 2 -1 14 11 27 l23
24 -65 -5 c-52 -4 -85 -16 -176 -61 l-112 -56 -475 -1 c-262 0 -476 4 -476 8
0 4 57 64 128 133 82 82 139 131 162 138 19 7 92 15 163 18 l127 6 0 29 0 28
-117 0 -118 0 95 95 c62 63 107 99 130 106 19 6 132 14 250 18 149 5 223 11
240 20 14 7 100 87 191 177 l166 164 156 0 c153 0 157 0 181 -25 56 -56 146
-18 146 62 0 75 -92 112 -146 58 -25 -25 -29 -26 -147 -23 l-122 3 105 103
c100 98 107 102 140 97 19 -3 69 -8 110 -11 66 -4 80 -2 115 18 21 13 58 50
82 83 38 54 42 66 43 120 l0 61 -70 12 c-95 16 -169 15 -205 -4z m188 -53 c21
-5 41 -12 44 -14 9 -10 -89 -138 -118 -152 -30 -16 -91 -19 -124 -6 -17 7 -10
13 43 40 61 31 78 56 46 68 -9 3 -41 -6 -70 -20 -30 -15 -54 -24 -54 -21 0 16
43 85 62 98 25 18 110 21 171 7z m-1563 -1890 c59 -12 84 -43 115 -144 14 -46
25 -86 25 -90 0 -21 -186 25 -216 54 -24 23 -63 124 -52 135 3 3 33 -16 66
-41 56 -44 82 -51 82 -22 0 6 -26 35 -57 64 -52 47 -56 52 -33 52 14 0 45 -4
70 -8z"/>
<path d="M1475 3676 c-18 -13 -19 -26 -17 -173 3 -127 7 -161 19 -175 14 -16
36 -18 158 -18 180 0 180 0 176 128 -1 48 -7 89 -12 90 -15 6 1 22 22 22 13 0
19 7 19 24 0 40 -25 56 -88 56 -51 0 -60 3 -84 30 -25 28 -30 30 -100 30 -48
0 -81 -5 -93 -14z m175 -65 c17 -25 29 -30 68 -33 41 -3 47 -6 46 -25 0 -13
-1 -61 -2 -108 l-2 -86 -127 3 -128 3 -3 124 c-1 69 0 131 2 138 4 9 25 13 65
13 55 0 61 -2 81 -29z"/>
<path d="M7220 3151 c-44 -23 -75 -62 -145 -186 -32 -55 -62 -103 -69 -107 -6
-4 -95 -8 -198 -8 l-188 0 0 -31 0 -30 373 3 c415 3 402 1 468 75 36 40 184
271 178 277 -9 8 -215 26 -297 26 -66 0 -96 -5 -122 -19z m317 -55 c7 -7 -85
-152 -121 -191 -17 -18 -49 -38 -71 -44 -43 -12 -185 -15 -185 -5 0 11 30 31
108 75 51 29 72 46 70 57 -6 30 -43 24 -122 -19 -42 -23 -79 -39 -81 -37 -10
10 75 135 106 157 33 22 39 23 162 18 71 -3 131 -8 134 -11z"/>
<path d="M370 2966 c-108 -40 -180 -71 -180 -77 0 -4 42 -47 94 -97 135 -129
180 -138 330 -68 78 36 79 36 215 36 l135 0 -72 -73 c-69 -69 -71 -73 -49 -83
12 -5 21 -16 19 -24 -2 -8 37 25 85 73 105 105 108 107 156 107 34 0 37 2 37
30 l0 30 -216 0 -216 0 -77 74 c-106 102 -147 114 -261 72z m145 -46 c41 -20
103 -76 94 -84 -3 -3 -32 1 -64 9 -79 19 -82 19 -88 -6 -6 -23 12 -32 86 -43
26 -4 47 -11 47 -15 0 -18 -102 -53 -135 -47 -26 5 -175 116 -175 131 0 11
157 74 184 75 5 0 28 -9 51 -20z"/>
<path d="M6399 2881 c-37 -37 -38 -78 -4 -115 34 -37 95 -37 124 0 30 38 28
89 -5 119 -37 34 -78 33 -115 -4z"/>
<path d="M2862 2878 c-7 -7 -12 -17 -12 -22 0 -6 136 -148 303 -316 343 -345
327 -321 327 -489 l0 -101 36 0 36 0 -4 123 c-6 183 4 168 -346 519 -163 164
-303 298 -312 298 -9 0 -21 -5 -28 -12z"/>
<path d="M1232 2857 c-22 -23 -29 -68 -16 -102 8 -19 55 -45 85 -45 11 0 37
16 56 35 29 29 34 40 28 63 -11 46 -43 72 -90 72 -30 0 -47 -6 -63 -23z"/>
<path d="M7175 2497 c13 -10 15 -16 6 -21 -6 -4 -9 -12 -6 -17 4 -5 2 -9 -4
-9 -5 0 -12 6 -14 13 -3 6 -6 7 -6 1 -1 -5 13 -23 31 -40 19 -18 29 -23 25
-12 -8 23 30 19 64 -7 l26 -19 -26 -25 c-19 -18 -21 -22 -8 -18 10 4 21 7 23
7 3 0 2 5 -2 12 -5 8 -2 9 9 5 11 -4 17 -1 17 7 0 16 -71 72 -85 68 -5 -2 -7
0 -2 4 8 8 -41 64 -57 64 -5 0 -2 -6 9 -13z"/>
<path d="M6888 2462 c7 -5 14 -19 15 -30 1 -13 8 -22 18 -22 9 0 31 -3 48 -6
28 -6 31 -4 31 19 0 28 -8 32 -80 42 -28 4 -40 3 -32 -3z"/>
<path d="M3459 1851 c-56 -56 -22 -145 56 -145 86 0 119 120 44 159 -42 22
-67 18 -100 -14z"/>
<path d="M4229 1681 c-32 -33 -36 -58 -14 -100 16 -33 33 -41 80 -41 68 0 101
95 50 145 -34 35 -78 33 -116 -4z"/>
<path d="M3485 1608 c-3 -7 -6 -245 -7 -528 -3 -473 -4 -518 -21 -548 -10 -18
-90 -108 -178 -199 -162 -170 -184 -204 -133 -211 32 -5 332 306 370 384 l29
59 0 525 0 525 -28 3 c-16 2 -29 -2 -32 -10z"/>
<path d="M4256 1435 c-11 -29 -7 -777 5 -840 6 -33 20 -77 31 -99 11 -21 92
-114 180 -205 127 -132 166 -166 186 -166 58 0 37 32 -126 198 -87 89 -170
182 -183 207 l-24 45 -5 435 -5 435 -26 3 c-17 2 -29 -3 -33 -13z"/>
<path d="M3846 1079 c-56 -44 -19 -142 54 -142 44 0 80 37 80 83 0 70 -76 104
-134 59z"/>
<path d="M3870 498 c0 -182 2 -329 5 -327 2 3 5 89 5 192 1 161 3 185 16 180
10 -4 15 0 14 8 -1 8 -1 23 1 34 2 11 6 -29 9 -90 5 -90 6 -70 8 113 l2 222
-30 0 -30 0 0 -332z"/>
<path d="M4189 383 c17 -20 29 -39 27 -41 -13 -12 -44 -7 -66 11 -14 12 6 -11
45 -51 38 -39 72 -72 74 -72 3 0 -10 16 -29 35 -30 31 -32 40 -7 36 4 0 7 4 7
10 0 5 5 7 10 4 6 -4 7 -12 4 -18 -4 -7 -4 -9 1 -5 4 4 17 2 29 -3 11 -6 -10
21 -49 60 -38 39 -71 71 -73 71 -2 0 10 -17 27 -37z"/>
</g>
</svg>
